<svg xmlns="http://www.w3.org/2000/svg" xmlns:xlink="http://www.w3.org/1999/xlink" version="1.1" x="0px" y="0px" viewBox="0 0 48 48" enable-background="new 0 0 48 48" xml:space="preserve"><g><path fill="#000000" d="M39.5,10.3h-39V0.6h39V10.3z M2.5,8.4h35.1V2.5H2.5V8.4z"></path><rect x="5.4" y="4.5" fill="#000000" width="2" height="2"></rect><rect x="9.3" y="4.5" fill="#000000" width="2" height="2"></rect><rect x="13.2" y="4.5" fill="#000000" width="2" height="2"></rect><g><path fill="#000000" d="M33.7,47.4c-5.5,0-10.7-3-13.5-7.8l-0.3-0.5l0.3-0.5c2.8-4.8,8-7.8,13.5-7.8c5.5,0,10.7,3,13.5,7.8    l0.3,0.5l-0.3,0.5C44.4,44.4,39.3,47.4,33.7,47.4z M22.2,39.1c2.5,3.9,6.9,6.3,11.5,6.3c4.7,0,9-2.4,11.5-6.3    c-2.5-3.9-6.9-6.3-11.5-6.3C29,32.8,24.7,35.2,22.2,39.1z"></path><path fill="#000000" d="M33.7,44c-2.7,0-4.9-2.2-4.9-4.9c0-2.7,2.2-4.9,4.9-4.9c2.7,0,4.9,2.2,4.9,4.9C38.6,41.8,36.4,44,33.7,44z     M33.7,36.2c-1.6,0-2.9,1.3-2.9,2.9c0,1.6,1.3,2.9,2.9,2.9c1.6,0,2.9-1.3,2.9-2.9C36.6,37.5,35.3,36.2,33.7,36.2z"></path></g><path fill="#000000" d="M23.3,37.7H0.5V8.4h39V34l-1.3-0.5c-1.5-0.5-3-0.8-4.5-0.8c-3.9,0-7.6,1.7-10.2,4.6L23.3,37.7z M2.5,35.7   h19.9c2.9-3.1,7-4.9,11.3-4.9c1.3,0,2.6,0.2,3.9,0.5v-21H2.5V35.7z"></path></g></svg>